<svg width="25.000000" height="25.000000" viewBox="0 0 25 25" fill="none" xmlns="http://www.w3.org/2000/svg" xmlns:xlink="http://www.w3.org/1999/xlink">
	<desc>
			Created with Pixso.
	</desc>
	<defs>
		<clipPath id="clip8_49">
			<rect width="25.000000" height="25.000000" fill="white" fill-opacity="0"/>
		</clipPath>
	</defs>
	<rect width="25.000000" height="25.000000" fill="#FFFFFF" fill-opacity="0"/>
	<g clip-path="url(#clip8_49)">
		<path d="M24.9998 12.5002C24.9998 19.4037 19.4034 25 12.5 25C5.59659 25 0.000244141 19.4037 0.000244141 12.5002C0.000244141 5.5968 5.59659 0.000457764 12.5 0.000457764C19.4034 0.000457764 24.9998 5.5968 24.9998 12.5002Z" fill="#CB2027" fill-opacity="1.000000" fill-rule="evenodd"/>
		<path d="M13.5089 16.7387C12.564 16.6656 12.1669 16.197 11.4258 15.7472C11.0185 17.8842 10.5207 19.9328 9.0463 21.0031C8.59064 17.7731 9.71432 15.347 10.2362 12.7718C9.34668 11.2745 10.3431 8.26062 12.2193 9.00328C14.5284 9.9164 10.2201 14.5709 13.1123 15.1522C16.1318 15.7592 17.3644 9.91306 15.4918 8.01151C12.7863 5.26614 7.6167 7.94912 8.25241 11.8792C8.40726 12.84 9.40015 13.1317 8.64902 14.4575C6.91748 14.074 6.40097 12.7083 6.46738 10.8877C6.57455 7.90746 9.14523 5.82074 11.7237 5.53197C14.9847 5.16699 18.0453 6.7294 18.4678 9.79675C18.9431 13.2587 16.9956 17.0079 13.5089 16.7387Z" fill="#F1F2F2" fill-opacity="1.000000" fill-rule="nonzero"/>
	</g>
</svg>
