<svg width="25.000000" height="25.000000" viewBox="0 0 25 25" fill="none" xmlns="http://www.w3.org/2000/svg" xmlns:xlink="http://www.w3.org/1999/xlink">
	<desc>
			Created with Pixso.
	</desc>
	<defs>
		<clipPath id="clip11_403">
			<rect width="25.000000" height="25.000000" fill="white" fill-opacity="0"/>
		</clipPath>
		<linearGradient id="paint_linear_11_404_0" x1="1.610435" y1="23.403208" x2="23.396536" y2="1.619795" gradientUnits="userSpaceOnUse">
			<stop stop-color="#8E7F42"/>
			<stop offset="0.500000" stop-color="#FF543E"/>
			<stop offset="1.000000" stop-color="#C837AB"/>
		</linearGradient>
	</defs>
	<rect width="25.000000" height="25.000000" fill="#FFFFFF" fill-opacity="0"/>
	<g clip-path="url(#clip11_403)">
		<path d="M1.5625 1.70104C-0.402069 3.74166 0 5.90937 0 12.4948C0 17.9635 -0.954163 23.4458 4.03958 24.7365C5.59897 25.1375 19.4156 25.1375 20.9729 24.7344C23.0521 24.1979 24.7437 22.5115 24.975 19.5708C25.0073 19.1604 25.0073 5.83646 24.974 5.41771C24.7281 2.28542 22.8 0.480206 20.2594 0.114582C19.6771 0.0302048 19.5604 0.00520706 16.5729 -3.8147e-06C5.97604 0.00520706 3.65314 -0.466671 1.5625 1.70104Z" fill="url(#paint_linear_11_404_0)" fill-opacity="1.000000" fill-rule="nonzero"/>
		<path d="M12.4979 3.2698C8.71564 3.2698 5.12396 2.93335 3.75211 6.45418C3.18542 7.90834 3.26773 9.79689 3.26773 12.5011C3.26773 14.874 3.19168 17.1042 3.75211 18.5469C5.12085 22.0698 8.74167 21.7323 12.4958 21.7323C16.1177 21.7323 19.8521 22.1094 21.2406 18.5469C21.8083 17.0781 21.725 15.2177 21.725 12.5011C21.725 8.89481 21.924 6.56668 20.175 4.81876C18.4042 3.04793 16.0094 3.2698 12.4938 3.2698L12.4979 3.2698ZM11.6708 4.93335C19.5604 4.92085 20.5646 4.04376 20.0104 16.2281C19.8135 20.5375 16.5323 20.0646 12.499 20.0646C5.14481 20.0646 4.93335 19.8542 4.93335 12.4969C4.93335 5.05418 5.51666 4.93751 11.6708 4.93126L11.6708 4.93335ZM17.425 6.46564C16.8135 6.46564 16.3177 6.96147 16.3177 7.57293C16.3177 8.18439 16.8135 8.68022 17.425 8.68022C18.0365 8.68022 18.5323 8.18439 18.5323 7.57293C18.5323 6.96147 18.0365 6.46564 17.425 6.46564ZM12.4979 7.76043C9.88022 7.76043 7.75833 9.88335 7.75833 12.5011C7.75833 15.1188 9.88022 17.2406 12.4979 17.2406C15.1156 17.2406 17.2365 15.1188 17.2365 12.5011C17.2365 9.88335 15.1156 7.76043 12.4979 7.76043ZM12.4979 9.42397C16.5656 9.42397 16.5708 15.5781 12.4979 15.5781C8.43127 15.5781 8.42502 9.42397 12.4979 9.42397Z" fill="#FFFFFF" fill-opacity="1.000000" fill-rule="nonzero"/>
	</g>
</svg>
