<svg width="25.000000" height="25.000000" viewBox="0 0 25 25" fill="none" xmlns="http://www.w3.org/2000/svg" xmlns:xlink="http://www.w3.org/1999/xlink">
	<desc>
			Created with Pixso.
	</desc>
	<defs>
		<clipPath id="clip8_29">
			<rect width="25.000000" height="25.000000" fill="white" fill-opacity="0"/>
		</clipPath>
	</defs>
	<rect width="25.000000" height="25.000000" fill="#FFFFFF" fill-opacity="0"/>
	<g clip-path="url(#clip8_29)">
		<path d="M25 12.5C25 19.4036 19.4036 25 12.5 25C5.59644 25 0 19.4036 0 12.5C0 5.59644 5.59644 0 12.5 0C19.4036 0 25 5.59644 25 12.5Z" fill="#4D76A1" fill-opacity="1.000000" fill-rule="evenodd"/>
		<path d="M12.0278 17.9824L13.0089 17.9824C13.0089 17.9824 13.3053 17.9498 13.4566 17.7867C13.5959 17.637 13.5914 17.3558 13.5914 17.3558C13.5914 17.3558 13.5722 16.0393 14.1832 15.8455C14.7855 15.6545 15.5589 17.1178 16.3787 17.6804C16.9986 18.1062 17.4697 18.0129 17.4697 18.0129L19.6616 17.9824C19.6616 17.9824 20.8082 17.9117 20.2646 17.0102C20.22 16.9364 19.9479 16.3433 18.6348 15.1244C17.2604 13.8487 17.4445 14.0551 19.1001 11.8484C20.1083 10.5046 20.5114 9.68416 20.3856 9.33276C20.2654 8.99808 19.5239 9.08654 19.5239 9.08654L17.0559 9.10192C17.0559 9.10192 16.8729 9.07696 16.7372 9.15807C16.6046 9.23762 16.5193 9.42301 16.5193 9.42301C16.5193 9.42301 16.1287 10.4629 15.6077 11.3473C14.5088 13.2135 14.0694 13.312 13.8898 13.1961C13.472 12.926 13.5763 12.1112 13.5763 11.5323C13.5763 9.72382 13.8506 8.96978 13.0421 8.77459C12.7739 8.70975 12.5764 8.66697 11.8904 8.66006C11.0098 8.65092 10.2644 8.66273 9.84238 8.86951C9.56161 9.00699 9.34503 9.31338 9.47696 9.33098C9.64008 9.35282 10.0095 9.43058 10.2054 9.6973C10.4583 10.0413 10.4494 10.8141 10.4494 10.8141C10.4494 10.8141 10.5946 12.943 10.11 13.2075C9.77731 13.3888 9.32098 13.0185 8.34122 11.3255C7.8392 10.4582 7.46017 9.49966 7.46017 9.49966C7.46017 9.49966 7.38708 9.32051 7.25674 9.22469C7.09854 9.1086 6.87747 9.07161 6.87747 9.07161L4.53226 9.08699C4.53226 9.08699 4.18021 9.09679 4.05096 9.24987C3.93597 9.38602 4.04181 9.66767 4.04181 9.66767C4.04181 9.66767 5.8779 13.9633 7.95685 16.128C9.8631 18.1127 12.0278 17.9824 12.0278 17.9824Z" fill="#FFFFFF" fill-opacity="1.000000" fill-rule="evenodd"/>
	</g>
</svg>
