<svg width="22.000000" height="22.000000" viewBox="0 0 22 22" fill="none" xmlns="http://www.w3.org/2000/svg" xmlns:xlink="http://www.w3.org/1999/xlink">
	<desc>
			Created with Pixso.
	</desc>
	<defs>
		<clipPath id="clip5_17">
			<rect width="22.000000" height="22.000000" fill="white" fill-opacity="0"/>
		</clipPath>
	</defs>
	<rect width="22.000000" height="22.000000" fill="#FFFFFF" fill-opacity="0"/>
	<g clip-path="url(#clip5_17)">
		<path d="M12.9443 9.74292C14.0183 10.8169 14.0183 12.5581 12.9443 13.6321C11.8703 14.7061 10.1291 14.7061 9.05511 13.6321C7.98114 12.5581 7.98114 10.8169 9.05511 9.74292C10.1291 8.66894 11.8703 8.66894 12.9443 9.74292Z" fill="#989898" fill-opacity="1.000000" fill-rule="nonzero"/>
		<path d="M19.25 4.12479L17.3499 4.12479L15.9742 1.37469L6.02454 1.37469L4.65015 4.12614L2.75275 4.12952C1.24008 4.13222 0.00869751 5.36492 0.00738525 6.87826L0 17.8745C0 19.3913 1.23337 20.6253 2.75009 20.6253L19.25 20.6253C20.7667 20.6253 22.0001 19.3919 22.0001 17.8752L22.0001 6.87484C22 5.35817 20.7666 4.12479 19.25 4.12479ZM10.9997 17.1877C7.96689 17.1877 5.49948 14.7203 5.49948 11.6875C5.49948 8.65473 7.96689 6.18731 10.9997 6.18731C14.0324 6.18731 16.4998 8.65473 16.4998 11.6875C16.4998 14.7203 14.0324 17.1877 10.9997 17.1877Z" fill="#989898" fill-opacity="1.000000" fill-rule="nonzero"/>
	</g>
</svg>
