<svg width="20.000000" height="20.000000" viewBox="0 0 20 20" fill="none" xmlns="http://www.w3.org/2000/svg" xmlns:xlink="http://www.w3.org/1999/xlink">
	<desc>
			Created with Pixso.
	</desc>
	<defs>
		<clipPath id="clip11_782">
			<rect width="20.000000" height="20.000000" fill="white" fill-opacity="0"/>
		</clipPath>
	</defs>
	<rect width="20.000000" height="20.000000" fill="#FFFFFF" fill-opacity="0"/>
	<g clip-path="url(#clip11_782)">
		<path d="M15.8594 12.9688C14.7017 12.9688 13.6731 13.5313 13.0321 14.3973L7.51379 11.5772C7.60632 11.2626 7.65625 10.9301 7.65625 10.5859C7.65625 10.1199 7.56494 9.67487 7.39941 9.26746L13.1831 5.79254C13.8284 6.54999 14.7887 7.03125 15.8594 7.03125C17.7979 7.03125 19.375 5.45416 19.375 3.51562C19.375 1.57709 17.7979 0 15.8594 0C13.9209 0 12.3438 1.57709 12.3438 3.51562C12.3438 3.96368 12.4282 4.39233 12.5817 4.78674L6.78357 8.27032C6.13879 7.53522 5.19299 7.07031 4.14062 7.07031C2.20215 7.07031 0.625 8.6474 0.625 10.5859C0.625 12.5245 2.20215 14.1016 4.14062 14.1016C5.31726 14.1016 6.3606 13.5204 6.99915 12.6302L12.5015 15.4421C12.3989 15.7716 12.3438 16.1216 12.3438 16.4844C12.3438 18.4229 13.9209 20 15.8594 20C17.7979 20 19.375 18.4229 19.375 16.4844C19.375 14.5458 17.7979 12.9688 15.8594 12.9688ZM15.8594 1.17188C17.1517 1.17188 18.2031 2.22327 18.2031 3.51562C18.2031 4.80798 17.1517 5.85938 15.8594 5.85938C14.567 5.85938 13.5156 4.80798 13.5156 3.51562C13.5156 2.22327 14.567 1.17188 15.8594 1.17188ZM4.14062 12.9297C2.84827 12.9297 1.79688 11.8783 1.79688 10.5859C1.79688 9.29358 2.84827 8.24219 4.14062 8.24219C5.43298 8.24219 6.48438 9.29358 6.48438 10.5859C6.48438 11.8783 5.43298 12.9297 4.14062 12.9297ZM15.8594 18.8281C14.567 18.8281 13.5156 17.7767 13.5156 16.4844C13.5156 15.192 14.567 14.1406 15.8594 14.1406C17.1517 14.1406 18.2031 15.192 18.2031 16.4844C18.2031 17.7767 17.1517 18.8281 15.8594 18.8281Z" fill="#FFFFFF" fill-opacity="1.000000" fill-rule="nonzero"/>
	</g>
</svg>
