<svg width="45.000000" height="45.000000" viewBox="0 0 45 45" fill="none" xmlns="http://www.w3.org/2000/svg" xmlns:xlink="http://www.w3.org/1999/xlink">
	<desc>
			Created with Pixso.
	</desc>
	<defs>
		<clipPath id="clip12_290">
			<rect width="45.000000" height="45.000000" fill="white" fill-opacity="0"/>
		</clipPath>
	</defs>
	<rect width="45.000000" height="45.000000" fill="#FFFFFF" fill-opacity="0"/>
	<g clip-path="url(#clip12_290)">
		<path d="M0 22.5005C0 34.9279 10.0728 45.0004 22.4998 45C34.9272 45.0004 45 34.9279 45 22.5005C45.0007 10.0732 34.9272 0 22.4998 0C10.0728 0 0 10.0735 0 22.5005Z" fill="#FA6E51" fill-opacity="1.000000" fill-rule="nonzero"/>
		<path d="M44.9465 23.9755L34.45 13.4787L34.4497 13.4787L29.0247 8.05368C28.969 7.99779 28.9021 7.95331 28.8284 7.92238C28.7546 7.89162 28.675 7.875 28.5938 7.875L17.625 7.875C17.2886 7.875 17.0156 8.1479 17.0156 8.48434L17.0156 11.5312L10.3125 11.5312C9.97607 11.5312 9.70312 11.8041 9.70312 12.1406L9.70312 36.5156C9.70312 36.7218 9.81226 36.8952 9.96924 37.0055C10.0098 37.0633 17.2424 44.2959 17.3003 44.3366C17.3193 44.3638 17.3464 44.3824 17.3691 44.4054C19.0178 44.7901 20.7336 45 22.4995 44.9999C34.4312 45.0004 44.1863 35.7144 44.9465 23.9755Z" fill="#E8573F" fill-opacity="1.000000" fill-rule="nonzero"/>
		<path d="M35.2495 14.3435C35.2185 14.2695 35.1741 14.2029 35.1182 14.147L29.0249 8.05368C28.969 7.99788 28.9023 7.95331 28.8284 7.92238C28.7546 7.89162 28.675 7.875 28.5938 7.875L17.625 7.875C17.2883 7.875 17.0156 8.14781 17.0156 8.48434L17.0156 11.5312L10.3125 11.5312C9.97583 11.5312 9.70312 11.8041 9.70312 12.1406L9.70312 36.5156C9.70312 36.8521 9.97583 37.1249 10.3125 37.1249L27.375 37.1249C27.7114 37.1249 27.9844 36.8521 27.9844 36.5156L27.9844 33.4688L34.6875 33.4688C35.0239 33.4688 35.2969 33.1959 35.2969 32.8594L35.2969 14.5782C35.2969 14.4968 35.2803 14.4171 35.2495 14.3435ZM29.2031 9.95537L33.2166 13.9687L29.2031 13.9687L29.2031 9.95537ZM26.7656 35.9062L10.9219 35.9062L10.9219 12.75L20.6719 12.75L20.6719 18.2344C20.6719 18.5709 20.9446 18.8438 21.2812 18.8438L26.7656 18.8438L26.7656 35.9062ZM25.9041 17.625L21.8906 17.625L21.8906 13.6116L25.9041 17.625ZM27.9844 32.25L27.9844 18.2344C27.9844 18.153 27.9678 18.0735 27.937 17.9997C27.906 17.9257 27.8616 17.8591 27.8057 17.8033L21.7124 11.7099C21.6565 11.6541 21.5898 11.6096 21.5159 11.5786C21.4421 11.5479 21.3625 11.5312 21.2812 11.5312L18.2344 11.5312L18.2344 9.09378L27.9844 9.09378L27.9844 14.5782C27.9844 14.9147 28.2571 15.1875 28.5938 15.1875L34.0781 15.1875L34.0781 32.25L27.9844 32.25Z" fill="#F4F6F9" fill-opacity="1.000000" fill-rule="nonzero"/>
	</g>
</svg>
