<svg width="45.000000" height="45.000000" viewBox="0 0 45 45" fill="none" xmlns="http://www.w3.org/2000/svg" xmlns:xlink="http://www.w3.org/1999/xlink">
	<desc>
			Created with Pixso.
	</desc>
	<defs>
		<clipPath id="clip12_250">
			<rect width="45.000000" height="45.000000" fill="white" fill-opacity="0"/>
		</clipPath>
	</defs>
	<rect width="45.000000" height="45.000000" fill="#FFFFFF" fill-opacity="0"/>
	<g clip-path="url(#clip12_250)">
		<path d="M45.0005 22.4998C45.0005 34.9261 34.927 44.9996 22.5007 44.9996C10.0745 44.9996 0.000976562 34.9261 0.000976562 22.4998C0.000976562 10.0735 10.0745 0 22.5007 0C34.927 0 45.0005 10.0735 45.0005 22.4998Z" fill="#55ACEE" fill-opacity="1.000000" fill-rule="evenodd"/>
		<path d="M36.2822 16.17C35.3179 16.5975 34.2808 16.8867 33.1931 17.0158C34.3037 16.3504 35.156 15.2976 35.5581 14.041C34.519 14.6575 33.3674 15.1047 32.1431 15.3457C31.1619 14.3009 29.7642 13.648 28.2166 13.648C25.2468 13.648 22.8384 16.0565 22.8384 19.026C22.8384 19.4476 22.886 19.8579 22.9783 20.2518C18.5088 20.0275 14.5457 17.8866 11.8928 14.6318C11.4299 15.4259 11.1646 16.3504 11.1646 17.3359C11.1646 19.2013 12.1147 20.8482 13.5569 21.8123C12.6758 21.7847 11.8459 21.5428 11.1211 21.1389C11.1208 21.1618 11.1208 21.1847 11.1208 21.2071C11.1208 23.8129 12.9753 25.9864 15.4353 26.4801C14.9844 26.6037 14.5083 26.669 14.0186 26.669C13.6711 26.669 13.3347 26.6357 13.0066 26.5732C13.6909 28.7093 15.6768 30.2643 18.0305 30.308C16.1897 31.7507 13.8711 32.6102 11.3506 32.6102C10.9175 32.6102 10.4883 32.585 10.0684 32.5348C12.4473 34.0613 15.2749 34.9513 18.3118 34.9513C28.2041 34.9513 33.6138 26.7565 33.6138 19.6489C33.6138 19.4159 33.6086 19.1837 33.5981 18.9535C34.6497 18.1954 35.5615 17.2485 36.2822 16.17Z" fill="#F1F2F2" fill-opacity="1.000000" fill-rule="nonzero"/>
	</g>
</svg>
