<svg width="45.000000" height="45.000000" viewBox="0 0 45 45" fill="none" xmlns="http://www.w3.org/2000/svg" xmlns:xlink="http://www.w3.org/1999/xlink">
	<desc>
			Created with Pixso.
	</desc>
	<defs>
		<clipPath id="clip12_270">
			<rect width="45.000000" height="45.000000" fill="white" fill-opacity="0"/>
		</clipPath>
	</defs>
	<rect width="45.000000" height="45.000000" fill="#FFFFFF" fill-opacity="0"/>
	<g clip-path="url(#clip12_270)">
		<path d="M45 22.5C45 34.9264 34.9265 45 22.5 45C10.0735 45 0 34.9264 0 22.5C0 10.0736 10.0735 0 22.5 0C34.9265 0 45 10.0736 45 22.5Z" fill="#4D76A1" fill-opacity="1.000000" fill-rule="evenodd"/>
		<path d="M21.6501 32.3683L23.416 32.3683C23.416 32.3683 23.9495 32.3097 24.2219 32.0161C24.4727 31.7466 24.4646 31.2404 24.4646 31.2404C24.4646 31.2404 24.4302 28.8708 25.5298 28.5219C26.614 28.1781 28.0061 30.8121 29.4817 31.8248C30.5977 32.5913 31.4453 32.4232 31.4453 32.4232L35.3909 32.3683C35.3909 32.3683 37.4548 32.2411 36.4763 30.6183C36.396 30.4856 35.9062 29.4179 33.5427 27.224C31.0688 24.9278 31.4001 25.2992 34.3801 21.3272C36.1951 18.9083 36.9207 17.4315 36.6941 16.799C36.4778 16.1966 35.1431 16.3558 35.1431 16.3558L30.7007 16.3835C30.7007 16.3835 30.3713 16.3385 30.127 16.4845C29.8884 16.6277 29.7349 16.9614 29.7349 16.9614C29.7349 16.9614 29.0317 18.8333 28.094 20.4252C26.1157 23.7843 25.325 23.9615 25.0017 23.753C24.2495 23.2669 24.4373 21.8001 24.4373 20.7581C24.4373 17.5029 24.9309 16.1456 23.4758 15.7943C22.9929 15.6776 22.6377 15.6006 21.4026 15.5881C19.8176 15.5717 18.4761 15.5929 17.7163 15.9651C17.2109 16.2126 16.821 16.7641 17.0586 16.7958C17.3521 16.8351 18.0171 16.9751 18.3696 17.4552C18.825 18.0744 18.8088 19.4654 18.8088 19.4654C18.8088 19.4654 19.0703 23.2973 18.198 23.7734C17.5991 24.0999 16.7778 23.4333 15.0142 20.3859C14.1106 18.8249 13.4282 17.0994 13.4282 17.0994C13.4282 17.0994 13.2969 16.7769 13.0623 16.6045C12.7773 16.3955 12.3794 16.3289 12.3794 16.3289L8.1582 16.3566C8.1582 16.3566 7.52441 16.3742 7.29175 16.6498C7.08472 16.8949 7.27539 17.4018 7.27539 17.4018C7.27539 17.4018 10.5803 25.1339 14.3223 29.0304C17.7537 32.6029 21.6501 32.3683 21.6501 32.3683Z" fill="#FFFFFF" fill-opacity="1.000000" fill-rule="evenodd"/>
	</g>
</svg>
